<svg width="698.4499999999999px" height="138.8px" xmlns="http://www.w3.org/2000/svg" viewBox="-99.22499999999997 5.599999999999994 698.4499999999999 138.8" style="background: rgba(0, 0, 0, 0);" preserveAspectRatio="xMidYMid"><defs><filter id="editing-extrude-glow"><feFlood flood-color="#333333" result="flood-1"></feFlood><feMorphology operator="erode" radius="1" in="SourceAlpha" result="erode"></feMorphology><feComposite operator="in" in="flood-1" in2="erode" result="comp1"></feComposite><feConvolveMatrix order="3,3" divisor="1" in="comp1" result="convolve" kernelMatrix="0 0 0 1 1 1 0 0 0"></feConvolveMatrix><feOffset dx="-3" dy="0" in="convolve" result="extrude"></feOffset><feComposite operator="in" in="flood-1" in2="extrude" result="comp-extrude"></feComposite><feFlood flood-color="#000000" result="flood-2"></feFlood><feComposite operator="in" in="flood-2" in2="SourceAlpha" result="comp2"></feComposite><feMorphology operator="dilate" radius="1" in="comp2" result="dilate"></feMorphology><feOffset dx="-4.5" dy="0" in="dilate" result="offset"></feOffset><feGaussianBlur in="offset" stdDeviation="5.8" result="blur"></feGaussianBlur><feComponentTransfer in="blur" result="shadow"><feFuncA type="linear" slope="0.8" intercept="-0.2"></feFuncA></feComponentTransfer><feMerge><feMergeNode in="shadow"></feMergeNode><feMergeNode in="comp-extrude"></feMergeNode><feMergeNode in="SourceGraphic"></feMergeNode></feMerge></filter></defs><g filter="url(#editing-extrude-glow)"><g transform="translate(0.5599716901779175, 100.79500198364258)"><path d="M26.11 0.90L26.11 0.90Q14.02 0.90 7.46-5.25L7.46-5.25L7.46-5.25Q0.90-11.39 0.90-24.90L0.90-24.90L0.90-24.90Q0.90-50.69 25.98-50.69L25.98-50.69L25.98-50.69Q32.06-50.69 37.28-49.22L37.28-49.22L37.28-49.22Q42.50-47.74 45.06-45.95L45.06-45.95L45.06-29.95L29.70-29.95L29.70-34.56L29.70-34.56Q29.70-36.99 28.61-38.14L28.61-38.14L28.61-38.14Q27.52-39.30 25.34-39.30L25.34-39.30L25.34-39.30Q23.17-39.30 22.08-38.14L22.08-38.14L22.08-38.14Q20.99-36.99 20.99-34.56L20.99-34.56L20.99-15.23L20.99-15.23Q20.99-12.80 22.08-11.65L22.08-11.65L22.08-11.65Q23.17-10.50 25.34-10.50L25.34-10.50L25.34-10.50Q27.52-10.50 28.61-11.65L28.61-11.65L28.61-11.65Q29.70-12.80 29.70-15.23L29.70-15.23L29.70-20.42L45.06-20.42L45.06-3.84L45.06-3.84Q42.43-2.05 37.28-0.58L37.28-0.58L37.28-0.58Q32.13 0.90 26.11 0.90L26.11 0.90ZM81.86-10.50L84.67-10.50L84.67 0L67.78 0L67.78-4.35L67.78-4.35Q66.37-2.30 63.84-0.70L63.84-0.70L63.84-0.70Q61.31 0.90 57.66 0.90L57.66 0.90L57.66 0.90Q52.86 0.90 50.11-1.66L50.11-1.66L50.11-1.66Q47.36-4.22 47.36-8.90L47.36-8.90L47.36-8.90Q47.36-20.99 67.90-21.31L67.90-21.31L67.90-21.31Q67.71-23.49 66.24-24.29L66.24-24.29L66.24-24.29Q64.77-25.09 61.25-25.09L61.25-25.09L61.25-25.09Q58.37-25.09 55.07-24.48L55.07-24.48L55.07-24.48Q51.78-23.87 49.02-22.85L49.02-22.85L49.02-34.62L49.02-34.62Q52.42-35.46 56.38-35.97L56.38-35.97L56.38-35.97Q60.35-36.48 64.13-36.48L64.13-36.48L64.13-36.48Q73.66-36.48 77.76-33.02L77.76-33.02L77.76-33.02Q81.86-29.57 81.86-22.34L81.86-22.34L81.86-10.50ZM67.78-14.59L67.78-14.98L67.78-14.98Q64.90-14.98 63.33-14.21L63.33-14.21L63.33-14.21Q61.76-13.44 61.76-11.65L61.76-11.65L61.76-11.65Q61.76-10.56 62.43-9.89L62.43-9.89L62.43-9.89Q63.10-9.22 64.32-9.22L64.32-9.22L64.32-9.22Q65.98-9.22 66.88-10.62L66.88-10.62L66.88-10.62Q67.78-12.03 67.78-14.59L67.78-14.59ZM102.27 0.90L102.27 0.90Q94.21 0.90 86.72-1.66L86.72-1.66L86.72-11.14L97.09-11.14L97.09-10.50L97.09-10.50Q97.09-7.42 100.99-7.42L100.99-7.42L100.99-7.42Q104.45-7.42 104.45-9.79L104.45-9.79L104.45-9.79Q104.45-11.07 103.46-11.71L103.46-11.71L103.46-11.71Q102.46-12.35 99.97-12.80L99.97-12.80L96.77-13.38L96.77-13.38Q86.72-15.17 86.72-24.77L86.72-24.77L86.72-24.77Q86.72-30.34 90.94-33.41L90.94-33.41L90.94-33.41Q95.17-36.48 102.34-36.48L102.34-36.48L102.34-36.48Q110.34-36.48 115.84-33.79L115.84-33.79L115.84-24.90L106.11-24.90L106.11-25.54L106.11-25.54Q106.11-26.82 105.25-27.49L105.25-27.49L105.25-27.49Q104.38-28.16 102.72-28.16L102.72-28.16L102.72-28.16Q99.52-28.16 99.52-26.11L99.52-26.11L99.52-26.11Q99.52-25.02 100.42-24.45L100.42-24.45L100.42-24.45Q101.31-23.87 103.68-23.36L103.68-23.36L107.33-22.66L107.33-22.66Q113.02-21.57 115.46-18.62L115.46-18.62L115.46-18.62Q117.89-15.68 117.89-11.07L117.89-11.07L117.89-11.07Q117.89-5.25 113.82-2.18L113.82-2.18L113.82-2.18Q109.76 0.90 102.27 0.90L102.27 0.90ZM139.07 0.90L139.07 0.90Q129.92 0.90 124.80-3.87L124.80-3.87L124.80-3.87Q119.68-8.64 119.68-17.79L119.68-17.79L119.68-17.79Q119.68-26.94 124.80-31.71L124.80-31.71L124.80-31.71Q129.92-36.48 139.01-36.48L139.01-36.48L139.01-36.48Q143.42-36.48 147.46-35.26L147.46-35.26L147.46-35.26Q151.49-34.05 153.73-32.51L153.73-32.51L153.73-19.84L142.72-19.84L142.72-20.99L142.72-20.99Q142.72-23.10 141.82-24.10L141.82-24.10L141.82-24.10Q140.93-25.09 139.01-25.09L139.01-25.09L139.01-25.09Q135.30-25.09 135.30-20.99L135.30-20.99L135.30-15.49L135.30-15.49Q135.30-10.50 140.99-10.50L140.99-10.50L140.99-10.50Q146.30-10.50 153.34-11.65L153.34-11.65L153.34-1.60L153.34-1.60Q151.17-0.64 147.23 0.13L147.23 0.13L147.23 0.13Q143.30 0.90 139.07 0.90L139.07 0.90ZM190.40-10.50L193.22-10.50L193.22 0L176.32 0L176.32-4.35L176.32-4.35Q174.91-2.30 172.38-0.70L172.38-0.70L172.38-0.70Q169.86 0.90 166.21 0.90L166.21 0.90L166.21 0.90Q161.41 0.90 158.66-1.66L158.66-1.66L158.66-1.66Q155.90-4.22 155.90-8.90L155.90-8.90L155.90-8.90Q155.90-20.99 176.45-21.31L176.45-21.31L176.45-21.31Q176.26-23.49 174.78-24.29L174.78-24.29L174.78-24.29Q173.31-25.09 169.79-25.09L169.79-25.09L169.79-25.09Q166.91-25.09 163.62-24.48L163.62-24.48L163.62-24.48Q160.32-23.87 157.57-22.85L157.57-22.85L157.57-34.62L157.57-34.62Q160.96-35.46 164.93-35.97L164.93-35.97L164.93-35.97Q168.90-36.48 172.67-36.48L172.67-36.48L172.67-36.48Q182.21-36.48 186.30-33.02L186.30-33.02L186.30-33.02Q190.40-29.57 190.40-22.34L190.40-22.34L190.40-10.50ZM176.32-14.59L176.32-14.98L176.32-14.98Q173.44-14.98 171.87-14.21L171.87-14.21L171.87-14.21Q170.30-13.44 170.30-11.65L170.30-11.65L170.30-11.65Q170.30-10.56 170.98-9.89L170.98-9.89L170.98-9.89Q171.65-9.22 172.86-9.22L172.86-9.22L172.86-9.22Q174.53-9.22 175.42-10.62L175.42-10.62L175.42-10.62Q176.32-12.03 176.32-14.59L176.32-14.59ZM207.87 0.90L207.87 0.90Q201.34 0.90 198.05-3.97L198.05-3.97L198.05-3.97Q194.75-8.83 194.75-17.79L194.75-17.79L194.75-17.79Q194.75-26.75 198.05-31.62L198.05-31.62L198.05-31.62Q201.34-36.48 207.87-36.48L207.87-36.48L207.87-36.48Q211.14-36.48 213.66-34.88L213.66-34.88L213.66-34.88Q216.19-33.28 217.79-31.23L217.79-31.23L217.79-39.30L214.02-39.30L214.02-49.79L232.51-49.79L232.51-10.50L235.33-10.50L235.33 0L217.79 0L217.79-4.35L217.79-4.35Q216.19-2.30 213.66-0.70L213.66-0.70L213.66-0.70Q211.14 0.90 207.87 0.90L207.87 0.90ZM214.08-10.50L214.08-10.50Q215.94-10.50 216.86-11.49L216.86-11.49L216.86-11.49Q217.79-12.48 217.79-14.59L217.79-14.59L217.79-20.99L217.79-20.99Q217.79-23.10 216.86-24.10L216.86-24.10L216.86-24.10Q215.94-25.09 214.08-25.09L214.08-25.09L214.08-25.09Q212.22-25.09 211.30-24.10L211.30-24.10L211.30-24.10Q210.37-23.10 210.37-20.99L210.37-20.99L210.37-14.59L210.37-14.59Q210.37-12.48 211.30-11.49L211.30-11.49L211.30-11.49Q212.22-10.50 214.08-10.50L214.08-10.50ZM253.50-39.10L240.45-39.10L240.45-49.79L253.50-49.79L253.50-39.10ZM257.73 0L237.38 0L237.38-10.50L240.19-10.50L240.19-25.09L237.38-25.09L237.38-35.58L254.91-35.58L254.91-10.50L257.73-10.50L257.73 0ZM294.02-10.50L296.83-10.50L296.83 0L279.94 0L279.94-4.35L279.94-4.35Q278.53-2.30 276-0.70L276-0.70L276-0.70Q273.47 0.90 269.82 0.90L269.82 0.90L269.82 0.90Q265.02 0.90 262.27-1.66L262.27-1.66L262.27-1.66Q259.52-4.22 259.52-8.90L259.52-8.90L259.52-8.90Q259.52-20.99 280.06-21.31L280.06-21.31L280.06-21.31Q279.87-23.49 278.40-24.29L278.40-24.29L278.40-24.29Q276.93-25.09 273.41-25.09L273.41-25.09L273.41-25.09Q270.53-25.09 267.23-24.48L267.23-24.48L267.23-24.48Q263.94-23.87 261.18-22.85L261.18-22.85L261.18-34.62L261.18-34.62Q264.58-35.46 268.54-35.97L268.54-35.97L268.54-35.97Q272.51-36.48 276.29-36.48L276.29-36.48L276.29-36.48Q285.82-36.48 289.92-33.02L289.92-33.02L289.92-33.02Q294.02-29.57 294.02-22.34L294.02-22.34L294.02-10.50ZM279.94-14.59L279.94-14.98L279.94-14.98Q277.06-14.98 275.49-14.21L275.49-14.21L275.49-14.21Q273.92-13.44 273.92-11.65L273.92-11.65L273.92-11.65Q273.92-10.56 274.59-9.89L274.59-9.89L274.59-9.89Q275.26-9.22 276.48-9.22L276.48-9.22L276.48-9.22Q278.14-9.22 279.04-10.62L279.04-10.62L279.04-10.62Q279.94-12.03 279.94-14.59L279.94-14.59ZM365.95-49.79L365.95-34.30L354.94-34.30L354.94-39.30L350.85-39.30L350.85-10.50L355.33-10.50L355.33 0L328.45 0L328.45-10.50L332.93-10.50L332.93-39.30L328.83-39.30L328.83-34.30L317.82-34.30L317.82-49.79L365.95-49.79ZM382.59 0.90L382.59 0.90Q373.50 0.90 368.38-3.87L368.38-3.87L368.38-3.87Q363.26-8.64 363.26-17.79L363.26-17.79L363.26-17.79Q363.26-26.94 368.38-31.71L368.38-31.71L368.38-31.71Q373.50-36.48 382.59-36.48L382.59-36.48L382.59-36.48Q391.81-36.48 396.86-31.65L396.86-31.65L396.86-31.65Q401.92-26.82 401.92-17.79L401.92-17.79L401.92-17.79Q401.92-8.64 396.80-3.87L396.80-3.87L396.80-3.87Q391.68 0.90 382.59 0.90L382.59 0.90ZM382.59-10.50L382.59-10.50Q384.45-10.50 385.38-11.49L385.38-11.49L385.38-11.49Q386.30-12.48 386.30-14.59L386.30-14.59L386.30-20.99L386.30-20.99Q386.30-23.10 385.38-24.10L385.38-24.10L385.38-24.10Q384.45-25.09 382.59-25.09L382.59-25.09L382.59-25.09Q380.74-25.09 379.81-24.10L379.81-24.10L379.81-24.10Q378.88-23.10 378.88-20.99L378.88-20.99L378.88-14.59L378.88-14.59Q378.88-12.48 379.81-11.49L379.81-11.49L379.81-11.49Q380.74-10.50 382.59-10.50L382.59-10.50ZM423.04 0.90L423.04 0.90Q413.95 0.90 408.83-3.87L408.83-3.87L408.83-3.87Q403.71-8.64 403.71-17.79L403.71-17.79L403.71-17.79Q403.71-26.94 408.83-31.71L408.83-31.71L408.83-31.71Q413.95-36.48 423.04-36.48L423.04-36.48L423.04-36.48Q432.26-36.48 437.31-31.65L437.31-31.65L437.31-31.65Q442.37-26.82 442.37-17.79L442.37-17.79L442.37-17.79Q442.37-8.64 437.25-3.87L437.25-3.87L437.25-3.87Q432.13 0.90 423.04 0.90L423.04 0.90ZM423.04-10.50L423.04-10.50Q424.90-10.50 425.82-11.49L425.82-11.49L425.82-11.49Q426.75-12.48 426.75-14.59L426.75-14.59L426.75-20.99L426.75-20.99Q426.75-23.10 425.82-24.10L425.82-24.10L425.82-24.10Q424.90-25.09 423.04-25.09L423.04-25.09L423.04-25.09Q421.18-25.09 420.26-24.10L420.26-24.10L420.26-24.10Q419.33-23.10 419.33-20.99L419.33-20.99L419.33-14.59L419.33-14.59Q419.33-12.48 420.26-11.49L420.26-11.49L420.26-11.49Q421.18-10.50 423.04-10.50L423.04-10.50ZM464.77 0.06L444.42 0.06L444.42-10.50L447.23-10.50L447.23-39.30L444.42-39.30L444.42-49.79L461.95-49.79L461.95-10.50L464.77-10.50L464.77 0.06ZM482.37 0.90L482.37 0.90Q474.30 0.90 466.82-1.66L466.82-1.66L466.82-11.14L477.18-11.14L477.18-10.50L477.18-10.50Q477.18-7.42 481.09-7.42L481.09-7.42L481.09-7.42Q484.54-7.42 484.54-9.79L484.54-9.79L484.54-9.79Q484.54-11.07 483.55-11.71L483.55-11.71L483.55-11.71Q482.56-12.35 480.06-12.80L480.06-12.80L476.86-13.38L476.86-13.38Q466.82-15.17 466.82-24.77L466.82-24.77L466.82-24.77Q466.82-30.34 471.04-33.41L471.04-33.41L471.04-33.41Q475.26-36.48 482.43-36.48L482.43-36.48L482.43-36.48Q490.43-36.48 495.94-33.79L495.94-33.79L495.94-24.90L486.21-24.90L486.21-25.54L486.21-25.54Q486.21-26.82 485.34-27.49L485.34-27.49L485.34-27.49Q484.48-28.16 482.82-28.16L482.82-28.16L482.82-28.16Q479.62-28.16 479.62-26.11L479.62-26.11L479.62-26.11Q479.62-25.02 480.51-24.45L480.51-24.45L480.51-24.45Q481.41-23.87 483.78-23.36L483.78-23.36L487.42-22.66L487.42-22.66Q493.12-21.57 495.55-18.62L495.55-18.62L495.55-18.62Q497.98-15.68 497.98-11.07L497.98-11.07L497.98-11.07Q497.98-5.25 493.92-2.18L493.92-2.18L493.92-2.18Q489.86 0.90 482.37 0.90L482.37 0.90Z" fill="#736ceb"></path></g></g><style>text {
  font-size: 64px;
  font-family: Arial Black;
  dominant-baseline: central;
  text-anchor: middle;
}</style></svg>