<svg width="200.36875px" height="95.6px" xmlns="http://www.w3.org/2000/svg" viewBox="110.31562500000001 27.200000000000003 279.36875 95.6" style="background: rgba(0, 0, 0, 0);" preserveAspectRatio="xMidYMid"><defs><filter id="editing-extrude-glow"><feFlood flood-color="#333333" result="flood-1"></feFlood><feMorphology operator="erode" radius="1" in="SourceAlpha" result="erode"></feMorphology><feComposite operator="in" in="flood-1" in2="erode" result="comp1"></feComposite><feConvolveMatrix order="3,3" divisor="1" in="comp1" result="convolve" kernelMatrix="0 0 0 1 1 1 0 0 0"></feConvolveMatrix><feOffset dx="-3" dy="0" in="convolve" result="extrude"></feOffset><feComposite operator="in" in="flood-1" in2="extrude" result="comp-extrude"></feComposite><feFlood flood-color="#000000" result="flood-2"></feFlood><feComposite operator="in" in="flood-2" in2="SourceAlpha" result="comp2"></feComposite><feMorphology operator="dilate" radius="1" in="comp2" result="dilate"></feMorphology><feOffset dx="-4.5" dy="0" in="dilate" result="offset"></feOffset><feGaussianBlur in="offset" stdDeviation="5.8" result="blur"></feGaussianBlur><feComponentTransfer in="blur" result="shadow"><feFuncA type="linear" slope="0.8" intercept="-0.2"></feFuncA></feComponentTransfer><feMerge><feMergeNode in="shadow"></feMergeNode><feMergeNode in="comp-extrude"></feMergeNode><feMergeNode in="SourceGraphic"></feMergeNode></feMerge></filter></defs><g filter="url(#editing-extrude-glow)"><g transform="translate(154.63500183820724, 91.52000045776367)"><path d="M16.73 0.57L16.73 0.57Q8.98 0.57 4.78-3.36L4.78-3.36L4.78-3.36Q0.57-7.30 0.57-15.95L0.57-15.95L0.57-15.95Q0.57-32.47 16.65-32.47L16.65-32.47L16.65-32.47Q20.54-32.47 23.88-31.53L23.88-31.53L23.88-31.53Q27.22-30.59 28.86-29.44L28.86-29.44L28.86-19.19L19.02-19.19L19.02-22.14L19.02-22.14Q19.02-23.70 18.33-24.44L18.33-24.44L18.33-24.44Q17.63-25.17 16.24-25.17L16.24-25.17L16.24-25.17Q14.84-25.17 14.15-24.44L14.15-24.44L14.15-24.44Q13.45-23.70 13.45-22.14L13.45-22.14L13.45-9.76L13.45-9.76Q13.45-8.20 14.15-7.46L14.15-7.46L14.15-7.46Q14.84-6.72 16.24-6.72L16.24-6.72L16.24-6.72Q17.63-6.72 18.33-7.46L18.33-7.46L18.33-7.46Q19.02-8.20 19.02-9.76L19.02-9.76L19.02-13.08L28.86-13.08L28.86-2.46L28.86-2.46Q27.18-1.31 23.88-0.37L23.88-0.37L23.88-0.37Q20.58 0.57 16.73 0.57L16.73 0.57ZM52.44-6.72L54.24-6.72L54.24 0L43.42 0L43.42-2.79L43.42-2.79Q42.52-1.48 40.90-0.45L40.90-0.45L40.90-0.45Q39.28 0.57 36.94 0.57L36.94 0.57L36.94 0.57Q33.87 0.57 32.10-1.07L32.10-1.07L32.10-1.07Q30.34-2.71 30.34-5.70L30.34-5.70L30.34-5.70Q30.34-13.45 43.50-13.65L43.50-13.65L43.50-13.65Q43.38-15.05 42.44-15.56L42.44-15.56L42.44-15.56Q41.49-16.07 39.24-16.07L39.24-16.07L39.24-16.07Q37.39-16.07 35.28-15.68L35.28-15.68L35.28-15.68Q33.17-15.29 31.41-14.64L31.41-14.64L31.41-22.18L31.41-22.18Q33.58-22.71 36.12-23.04L36.12-23.04L36.12-23.04Q38.66-23.37 41.08-23.37L41.08-23.37L41.08-23.37Q47.19-23.37 49.81-21.16L49.81-21.16L49.81-21.16Q52.44-18.94 52.44-14.31L52.44-14.31L52.44-6.72ZM43.42-9.35L43.42-9.59L43.42-9.59Q41.57-9.59 40.57-9.10L40.57-9.10L40.57-9.10Q39.56-8.61 39.56-7.46L39.56-7.46L39.56-7.46Q39.56-6.77 40.00-6.33L40.00-6.33L40.00-6.33Q40.43-5.90 41.20-5.90L41.20-5.90L41.20-5.90Q42.27-5.90 42.84-6.81L42.84-6.81L42.84-6.81Q43.42-7.71 43.42-9.35L43.42-9.35ZM65.52 0.57L65.52 0.57Q60.35 0.57 55.55-1.07L55.55-1.07L55.55-7.13L62.20-7.13L62.20-6.72L62.20-6.72Q62.20-4.76 64.70-4.76L64.70-4.76L64.70-4.76Q66.91-4.76 66.91-6.27L66.91-6.27L66.91-6.27Q66.91-7.09 66.28-7.50L66.28-7.50L66.28-7.50Q65.64-7.91 64.04-8.20L64.04-8.20L61.99-8.57L61.99-8.57Q55.55-9.72 55.55-15.87L55.55-15.87L55.55-15.87Q55.55-19.43 58.26-21.40L58.26-21.40L58.26-21.40Q60.97-23.37 65.56-23.37L65.56-23.37L65.56-23.37Q70.68-23.37 74.21-21.65L74.21-21.65L74.21-15.95L67.98-15.95L67.98-16.36L67.98-16.36Q67.98-17.18 67.42-17.61L67.42-17.61L67.42-17.61Q66.87-18.04 65.81-18.04L65.81-18.04L65.81-18.04Q63.76-18.04 63.76-16.73L63.76-16.73L63.76-16.73Q63.76-16.03 64.33-15.66L64.33-15.66L64.33-15.66Q64.90-15.29 66.42-14.96L66.42-14.96L68.76-14.51L68.76-14.51Q72.41-13.82 73.96-11.93L73.96-11.93L73.96-11.93Q75.52-10.04 75.52-7.09L75.52-7.09L75.52-7.09Q75.52-3.36 72.92-1.39L72.92-1.39L72.92-1.39Q70.31 0.57 65.52 0.57L65.52 0.57ZM89.09 0.57L89.09 0.57Q83.23 0.57 79.95-2.48L79.95-2.48L79.95-2.48Q76.67-5.54 76.67-11.40L76.67-11.40L76.67-11.40Q76.67-17.26 79.95-20.32L79.95-20.32L79.95-20.32Q83.23-23.37 89.05-23.37L89.05-23.37L89.05-23.37Q91.88-23.37 94.46-22.59L94.46-22.59L94.46-22.59Q97.05-21.81 98.48-20.83L98.48-20.83L98.48-12.71L91.43-12.71L91.43-13.45L91.43-13.45Q91.43-14.80 90.86-15.44L90.86-15.44L90.86-15.44Q90.28-16.07 89.05-16.07L89.05-16.07L89.05-16.07Q86.67-16.07 86.67-13.45L86.67-13.45L86.67-9.92L86.67-9.92Q86.67-6.72 90.32-6.72L90.32-6.72L90.32-6.72Q93.73-6.72 98.24-7.46L98.24-7.46L98.24-1.03L98.24-1.03Q96.84-0.41 94.32 0.08L94.32 0.08L94.32 0.08Q91.80 0.57 89.09 0.57L89.09 0.57ZM121.98-6.72L123.78-6.72L123.78 0L112.96 0L112.96-2.79L112.96-2.79Q112.05-1.48 110.43-0.45L110.43-0.45L110.43-0.45Q108.81 0.57 106.48 0.57L106.48 0.57L106.48 0.57Q103.40 0.57 101.64-1.07L101.64-1.07L101.64-1.07Q99.88-2.71 99.88-5.70L99.88-5.70L99.88-5.70Q99.88-13.45 113.04-13.65L113.04-13.65L113.04-13.65Q112.91-15.05 111.97-15.56L111.97-15.56L111.97-15.56Q111.03-16.07 108.77-16.07L108.77-16.07L108.77-16.07Q106.93-16.07 104.82-15.68L104.82-15.68L104.82-15.68Q102.71-15.29 100.94-14.64L100.94-14.64L100.94-22.18L100.94-22.18Q103.12-22.71 105.66-23.04L105.66-23.04L105.66-23.04Q108.20-23.37 110.62-23.37L110.62-23.37L110.62-23.37Q116.73-23.37 119.35-21.16L119.35-21.16L119.35-21.16Q121.98-18.94 121.98-14.31L121.98-14.31L121.98-6.72ZM112.96-9.35L112.96-9.59L112.96-9.59Q111.11-9.59 110.11-9.10L110.11-9.10L110.11-9.10Q109.10-8.61 109.10-7.46L109.10-7.46L109.10-7.46Q109.10-6.77 109.53-6.33L109.53-6.33L109.53-6.33Q109.96-5.90 110.74-5.90L110.74-5.90L110.74-5.90Q111.81-5.90 112.38-6.81L112.38-6.81L112.38-6.81Q112.96-7.71 112.96-9.35L112.96-9.35ZM133.17 0.57L133.17 0.57Q128.99 0.57 126.87-2.54L126.87-2.54L126.87-2.54Q124.76-5.66 124.76-11.40L124.76-11.40L124.76-11.40Q124.76-17.14 126.87-20.25L126.87-20.25L126.87-20.25Q128.99-23.37 133.17-23.37L133.17-23.37L133.17-23.37Q135.26-23.37 136.88-22.35L136.88-22.35L136.88-22.35Q138.50-21.32 139.52-20.01L139.52-20.01L139.52-25.17L137.10-25.17L137.10-31.90L148.95-31.90L148.95-6.72L150.76-6.72L150.76 0L139.52 0L139.52-2.79L139.52-2.79Q138.50-1.48 136.88-0.45L136.88-0.45L136.88-0.45Q135.26 0.57 133.17 0.57L133.17 0.57ZM137.15-6.72L137.15-6.72Q138.33-6.72 138.93-7.36L138.93-7.36L138.93-7.36Q139.52-8.00 139.52-9.35L139.52-9.35L139.52-13.45L139.52-13.45Q139.52-14.80 138.93-15.44L138.93-15.44L138.93-15.44Q138.33-16.07 137.15-16.07L137.15-16.07L137.15-16.07Q135.96-16.07 135.36-15.44L135.36-15.44L135.36-15.44Q134.77-14.80 134.77-13.45L134.77-13.45L134.77-9.35L134.77-9.35Q134.77-8.00 135.36-7.36L135.36-7.36L135.36-7.36Q135.96-6.72 137.15-6.72L137.15-6.72ZM162.40-25.05L154.04-25.05L154.04-31.90L162.40-31.90L162.40-25.05ZM165.11 0L152.07 0L152.07-6.72L153.87-6.72L153.87-16.07L152.07-16.07L152.07-22.80L163.30-22.80L163.30-6.72L165.11-6.72L165.11 0ZM188.35-6.72L190.16-6.72L190.16 0L179.33 0L179.33-2.79L179.33-2.79Q178.43-1.48 176.81-0.45L176.81-0.45L176.81-0.45Q175.19 0.57 172.86 0.57L172.86 0.57L172.86 0.57Q169.78 0.57 168.02-1.07L168.02-1.07L168.02-1.07Q166.26-2.71 166.26-5.70L166.26-5.70L166.26-5.70Q166.26-13.45 179.42-13.65L179.42-13.65L179.42-13.65Q179.29-15.05 178.35-15.56L178.35-15.56L178.35-15.56Q177.41-16.07 175.15-16.07L175.15-16.07L175.15-16.07Q173.31-16.07 171.20-15.68L171.20-15.68L171.20-15.68Q169.08-15.29 167.32-14.64L167.32-14.64L167.32-22.18L167.32-22.18Q169.49-22.71 172.04-23.04L172.04-23.04L172.04-23.04Q174.58-23.37 177.00-23.37L177.00-23.37L177.00-23.37Q183.11-23.37 185.73-21.16L185.73-21.16L185.73-21.16Q188.35-18.94 188.35-14.31L188.35-14.31L188.35-6.72ZM179.33-9.35L179.33-9.59L179.33-9.59Q177.49-9.59 176.48-9.10L176.48-9.10L176.48-9.10Q175.48-8.61 175.48-7.46L175.48-7.46L175.48-7.46Q175.48-6.77 175.91-6.33L175.91-6.33L175.91-6.33Q176.34-5.90 177.12-5.90L177.12-5.90L177.12-5.90Q178.19-5.90 178.76-6.81L178.76-6.81L178.76-6.81Q179.33-7.71 179.33-9.35L179.33-9.35Z" fill="#736ceb"></path></g></g><style>text {
  font-size: 64px;
  font-family: Arial Black;
  dominant-baseline: central;
  text-anchor: middle;
}</style></svg>