<?xml version="1.0" standalone="no"?>
<!DOCTYPE svg PUBLIC "-//W3C//DTD SVG 20010904//EN"
 "http://www.w3.org/TR/2001/REC-SVG-20010904/DTD/svg10.dtd">
<svg version="1.0" xmlns="http://www.w3.org/2000/svg"
 width="200.000000pt" height="200.000000pt" viewBox="0 0 200.000000 200.000000"
 preserveAspectRatio="xMidYMid meet">
<metadata>
Created by potrace 1.14, written by Peter Selinger 2001-2017
</metadata>
<g transform="translate(0.000000,200.000000) scale(0.100000,-0.100000)"
fill="#000000" stroke="none">
<path d="M763 1482 c-117 -59 -213 -109 -213 -112 0 -7 427 -220 440 -220 6 0
10 81 10 220 0 170 -3 220 -12 219 -7 0 -109 -48 -225 -107z"/>
<path d="M310 1025 l0 -225 345 -172 345 -173 340 170 340 170 0 227 c0 126
-2 228 -5 228 -3 0 -157 -76 -343 -169 l-337 -169 -335 169 c-184 92 -338 168
-342 168 -5 1 -8 -100 -8 -224z"/>
</g>
</svg>
